<?xml version="1.0" standalone="no"?>
<!DOCTYPE svg PUBLIC "-//W3C//DTD SVG 20010904//EN"
 "http://www.w3.org/TR/2001/REC-SVG-20010904/DTD/svg10.dtd">
<svg version="1.0" xmlns="http://www.w3.org/2000/svg"
 width="1280.000000pt" height="1280.000000pt" viewBox="0 0 1280.000000 1280.000000"
 preserveAspectRatio="xMidYMid meet">
<g transform="translate(0.000000,1280.000000) scale(0.100000,-0.100000)"
fill="#000000" stroke="none">
<path d="M6105 12144 c-1771 -97 -3376 -956 -4417 -2364 -919 -1244 -1292
-2808 -1033 -4336 167 -983 603 -1926 1250 -2699 789 -944 1862 -1616 3055
-1915 1204 -301 2472 -219 3619 237 584 231 1111 546 1606 959 164 137 472
439 622 609 772 877 1256 1965 1387 3115 37 323 47 724 25 1032 -124 1764
-1028 3334 -2504 4350 -803 553 -1751 893 -2765 993 -149 15 -696 27 -845 19z
m815 -578 c469 -50 896 -147 1298 -293 93 -34 122 -49 122 -63 0 -9 -34 -98
-76 -196 -42 -99 -269 -640 -505 -1204 -237 -564 -437 -1032 -446 -1040 -14
-14 -15 -9 -9 45 21 203 26 281 26 465 0 227 -11 373 -41 558 -77 467 -241
862 -502 1207 -65 85 -249 275 -330 340 -45 36 -49 37 -74 24 -40 -21 -266
-242 -335 -328 -296 -367 -487 -851 -554 -1406 -22 -181 -22 -595 -1 -775 9
-73 12 -129 6 -134 -11 -12 27 -99 -424 979 -207 495 -431 1027 -496 1182 -65
156 -119 285 -119 288 0 9 57 33 190 79 439 153 909 249 1395 285 172 13 702
5 875 -13z m-2572 -453 c11 -27 91 -217 177 -423 87 -206 301 -716 476 -1132
175 -417 319 -762 319 -768 0 -24 -23 -3 -118 109 -480 562 -1107 939 -1742
1046 -169 29 -566 32 -610 5 -23 -14 -27 -392 -6 -545 96 -692 512 -1372 1156
-1886 91 -72 109 -95 68 -86 -19 3 -2053 833 -2393 975 -56 24 -91 44 -93 55
-4 21 143 322 238 487 232 402 499 750 840 1090 388 389 761 667 1240 925 151
81 389 194 411 194 10 1 24 -17 37 -46z m4407 -73 c948 -468 1711 -1185 2235
-2099 101 -175 244 -467 237 -484 -2 -6 -152 -72 -333 -146 -181 -74 -739
-302 -1241 -508 -501 -205 -919 -373 -928 -373 -25 0 -12 13 98 102 125 101
362 331 466 453 394 460 631 981 682 1500 13 132 7 422 -10 453 -8 14 -26 21
-72 26 -94 9 -344 7 -439 -4 -509 -62 -997 -288 -1456 -673 -105 -88 -368
-355 -438 -444 -49 -63 -66 -75 -66 -49 0 8 115 288 256 623 141 334 362 860
491 1168 129 308 237 564 240 568 10 16 58 -4 278 -113z m-6345 -3083 c476
-195 1011 -413 1190 -486 179 -73 332 -136 340 -141 32 -20 -6 -22 -177 -10
-950 68 -1816 -242 -2320 -829 -34 -41 -63 -81 -63 -90 0 -23 140 -181 234
-266 367 -330 834 -540 1393 -625 264 -40 586 -47 858 -20 80 8 114 1 79 -18
-11 -5 -275 -114 -589 -242 -313 -128 -850 -346 -1191 -486 -342 -140 -629
-254 -638 -254 -20 0 -32 28 -116 280 -358 1065 -358 2195 0 3260 86 256 96
280 118 280 9 0 406 -159 882 -353z m8933 231 c147 -402 240 -794 294 -1243
14 -121 18 -227 18 -545 0 -318 -4 -424 -18 -545 -54 -449 -147 -841 -294
-1242 -33 -91 -49 -123 -62 -123 -9 0 -356 139 -771 308 -415 170 -952 389
-1192 487 -421 171 -479 197 -468 209 3 3 48 0 100 -6 152 -17 572 -14 735 6
641 78 1184 319 1563 695 88 87 182 197 182 213 0 17 -137 174 -219 250 -494
457 -1219 700 -2011 675 -107 -4 -228 -10 -269 -13 -58 -6 -73 -4 -69 6 2 7
431 187 953 400 523 213 1060 432 1195 488 135 55 255 101 266 101 19 1 28
-16 67 -121z m-7259 -2830 c-3 -7 -51 -49 -107 -93 -129 -101 -409 -379 -514
-510 -358 -447 -567 -915 -624 -1398 -6 -56 -10 -181 -7 -294 3 -173 6 -197
22 -208 24 -18 205 -29 361 -22 709 34 1429 425 2001 1086 61 71 100 109 102
99 2 -8 -95 -247 -214 -529 -119 -283 -340 -809 -491 -1169 -151 -360 -280
-661 -287 -668 -17 -17 -74 6 -316 128 -512 259 -940 569 -1350 980 -344 343
-611 692 -845 1100 -99 174 -237 457 -233 478 4 21 -57 -5 753 325 385 157
930 380 1210 496 281 115 518 210 527 210 10 1 15 -4 12 -11z m5571 -361 c490
-201 1042 -427 1228 -502 187 -76 341 -144 344 -152 8 -20 -191 -412 -299
-591 -460 -757 -1088 -1374 -1853 -1821 -250 -146 -577 -303 -594 -285 -5 5
-62 135 -126 289 -64 154 -283 675 -487 1159 -203 483 -374 889 -378 902 -21
53 13 27 108 -85 602 -705 1414 -1109 2167 -1078 167 7 191 12 200 35 13 35
17 330 6 447 -68 693 -477 1402 -1111 1924 -162 134 -163 135 -125 128 17 -3
431 -170 920 -370z m-4162 -1097 c-18 -155 -21 -583 -4 -730 75 -659 303
-1189 679 -1581 51 -54 124 -123 163 -155 80 -66 65 -69 197 46 88 77 198 197
287 316 241 320 411 755 485 1239 37 244 39 630 4 955 -6 50 -5 54 10 40 8 -9
182 -411 384 -895 203 -484 431 -1028 507 -1208 107 -255 136 -333 128 -345
-5 -9 -79 -41 -164 -70 -1080 -375 -2227 -400 -3319 -70 -150 45 -370 124
-383 137 -4 4 115 303 266 662 151 360 379 904 507 1209 128 305 237 563 242
574 21 40 26 -5 11 -124z"/>
</g>
</svg>
